<svg width="31" height="32" viewBox="0 0 31 32" fill="none" xmlns="http://www.w3.org/2000/svg">
<g id="Frame">
<path id="Vector" d="M15.2764 14.0702C17.3704 14.0702 19.0679 12.3727 19.0679 10.2787C19.0679 8.18474 17.3704 6.48724 15.2764 6.48724C13.1825 6.48724 11.485 8.18474 11.485 10.2787C11.485 12.3727 13.1825 14.0702 15.2764 14.0702ZM15.2764 16.5978C11.7865 16.5978 8.95733 13.7687 8.95733 10.2787C8.95733 6.78876 11.7865 3.95959 15.2764 3.95959C18.7664 3.95959 21.5956 6.78876 21.5956 10.2787C21.5956 13.7687 18.7664 16.5978 15.2764 16.5978ZM6.42968 27.9722H3.90204C3.90204 23.0863 8.99453 19.1255 15.2764 19.1255C21.5584 19.1255 26.6509 23.0863 26.6509 27.9722H24.1232C24.1232 24.641 20.2817 21.6531 15.2764 21.6531C10.2712 21.6531 6.42968 24.641 6.42968 27.9722Z" fill="white"/>
</g>
</svg>
