<svg width="31" height="32" viewBox="0 0 31 32" fill="none" xmlns="http://www.w3.org/2000/svg">
<g id="Frame">
<path id="Vector" d="M8.41907 13.4388H22.0925L17.0079 6.08759L19.0707 4.59203L25.1897 13.4388H26.6508C27.3488 13.4388 27.9146 14.0046 27.9146 14.7026C27.9146 15.4006 27.3488 15.9664 26.6508 15.9664L22.2627 25.8398C21.857 26.7526 20.9518 27.3408 19.9529 27.3408H10.5999C9.60105 27.3408 8.69585 26.7526 8.29016 25.8398L3.90201 15.9664C3.20402 15.9664 2.63818 15.4006 2.63818 14.7026C2.63818 14.0046 3.20402 13.4388 3.90201 13.4388H5.31284L11.4849 4.59203L13.5418 6.09618L8.41907 13.4388ZM6.66978 15.9664L10.6003 24.8132H19.9478L23.883 15.9664H6.66978Z" fill="white"/>
</g>
</svg>
