<svg width="30" height="28" viewBox="0 0 30 28" fill="none" xmlns="http://www.w3.org/2000/svg">
<g id="Social Media / Twitter">
<g id="Capa 2">
<g id="ELEMENTS">
<path id="Vector" d="M22.4456 9.56708C21.9503 9.76623 21.4295 9.9049 20.8962 9.97967C21.1456 9.93975 21.5124 9.5205 21.6585 9.35081C21.8803 9.09484 22.0494 8.80263 22.1571 8.48903C22.1571 8.46573 22.1821 8.43246 22.1571 8.41582C22.1446 8.40942 22.1305 8.40606 22.1162 8.40606C22.1019 8.40606 22.0878 8.40942 22.0752 8.41582C21.4961 8.70877 20.8798 8.93236 20.2409 9.08129C20.2186 9.08765 20.1949 9.08822 20.1723 9.08294C20.1497 9.07767 20.1291 9.06674 20.1126 9.05135C20.0629 8.99602 20.0094 8.94378 19.9524 8.89496C19.6917 8.67684 19.3961 8.49831 19.0761 8.36591C18.6443 8.20041 18.1778 8.12873 17.712 8.15629C17.2599 8.18296 16.8186 8.29622 16.4155 8.48903C16.0184 8.6923 15.6695 8.96846 15.3896 9.3009C15.0953 9.64306 14.8827 10.0402 14.7663 10.4655C14.6703 10.87 14.6595 11.2881 14.7343 11.6966C14.7343 11.7665 14.7343 11.7764 14.6702 11.7665C12.1306 11.4171 10.0469 10.5753 8.34433 8.76852C8.26953 8.68867 8.23035 8.68867 8.1698 8.76852C7.42894 9.81996 7.78868 11.4836 8.71476 12.3055C8.83943 12.4153 8.96765 12.5218 9.103 12.6216C8.6784 12.5934 8.26417 12.4859 7.88485 12.3055C7.81362 12.2622 7.77444 12.2855 7.77087 12.3654C7.76078 12.4761 7.76078 12.5874 7.77087 12.6981C7.84519 13.2287 8.06903 13.7313 8.41948 14.1546C8.76994 14.5778 9.23445 14.9065 9.7655 15.1071C9.89496 15.1589 10.0299 15.1979 10.168 15.2236C9.77492 15.2959 9.37177 15.3071 8.97478 15.2568C8.88929 15.2402 8.85723 15.2834 8.88929 15.36C9.41288 16.6909 10.5491 17.0968 11.3826 17.3231C11.4966 17.3397 11.6105 17.3397 11.7388 17.3664C11.7388 17.3664 11.7388 17.3664 11.7174 17.3863C11.4716 17.8056 10.4779 18.0884 10.022 18.2348C9.18979 18.514 8.30255 18.6208 7.42181 18.5476C7.2829 18.5276 7.25085 18.5309 7.21523 18.5476C7.17961 18.5642 7.21523 18.6008 7.25441 18.6341C7.4325 18.7439 7.61059 18.8404 7.79581 18.9335C8.3472 19.2145 8.93012 19.4377 9.53398 19.599C12.6613 20.4042 16.1804 19.812 18.5276 17.6326C20.3727 15.9223 21.0209 13.5632 21.0209 11.2008C21.0209 11.111 21.1385 11.0577 21.2061 11.0111C21.6729 10.6714 22.0844 10.2701 22.4278 9.81996C22.4873 9.75286 22.5178 9.66741 22.5133 9.58039V9.58039C22.5133 9.53048 22.5133 9.54047 22.4456 9.56708Z" fill="#DCDCDC"/>
</g>
</g>
</g>
</svg>
