<svg width="28" height="28" viewBox="0 0 28 28" fill="none" xmlns="http://www.w3.org/2000/svg">
<g id="Social Media / Linkedin">
<g id="Group">
<path id="Vector" d="M10.7792 19.6738V12.1102H8.26744V19.6738H10.7795H10.7792ZM9.52386 11.0777C10.3996 11.0777 10.9448 10.4969 10.9448 9.77103C10.9284 9.02866 10.3996 8.46407 9.54051 8.46407C8.68085 8.46407 8.11938 9.02866 8.11938 9.77096C8.11938 10.4968 8.66439 11.0776 9.5074 11.0776H9.52366L9.52386 11.0777ZM12.1695 19.6738H14.6811V15.4504C14.6811 15.2246 14.6975 14.9983 14.7639 14.837C14.9454 14.3852 15.3587 13.9175 16.0527 13.9175C16.9614 13.9175 17.3251 14.611 17.3251 15.6279V19.6738H19.8366V15.337C19.8366 13.0139 18.5976 11.9328 16.9451 11.9328C15.5902 11.9328 14.9952 12.6908 14.6646 13.207H14.6813V12.1104H12.1697C12.2025 12.82 12.1695 19.674 12.1695 19.674L12.1695 19.6738Z" fill="#DCDCDC"/>
</g>
</g>
</svg>
