<svg width="29" height="28" viewBox="0 0 29 28" fill="none" xmlns="http://www.w3.org/2000/svg">
<g id="Social Media / Youtube">
<g id="Vector">
<path d="M22.5654 10.1472C22.3761 9.45989 21.816 8.91771 21.1033 8.73189C19.8148 8.39844 14.6449 8.39844 14.6449 8.39844C14.6449 8.39844 9.47761 8.39844 8.18645 8.73189C7.47645 8.91516 6.91633 9.45735 6.72437 10.1472C6.37988 11.3944 6.37988 13.9984 6.37988 13.9984C6.37988 13.9984 6.37988 16.6024 6.72437 17.8497C6.9137 18.537 7.47382 19.0792 8.18645 19.265C9.47761 19.5984 14.6449 19.5984 14.6449 19.5984C14.6449 19.5984 19.8148 19.5984 21.1033 19.265C21.8133 19.0817 22.3734 18.5395 22.5654 17.8497C22.9099 16.6024 22.9099 13.9984 22.9099 13.9984C22.9099 13.9984 22.9099 11.3944 22.5654 10.1472Z" fill="#DCDCDC"/>
<path d="M12.9935 16.3988L17.2877 13.9984L12.9935 11.5981V16.3988Z" fill="black"/>
</g>
</g>
</svg>
